<svg width="264" height="264" viewBox="0 0 264 264" fill="none" xmlns="http://www.w3.org/2000/svg">
<g filter="url(#filter0_d_14_2)">
<rect x="4" width="256" height="256" rx="5" fill="#0000"/>
<path d="M43.1591 204.455V96.4545H71.1818V110.159H71.7955C72.8182 107.5 74.3182 105.062 76.2955 102.847C78.2727 100.597 80.7273 98.8068 83.6591 97.4773C86.5909 96.1136 90 95.4318 93.8864 95.4318C99.0682 95.4318 103.994 96.8125 108.665 99.5739C113.369 102.335 117.188 106.682 120.119 112.614C123.085 118.545 124.568 126.25 124.568 135.727C124.568 144.795 123.153 152.312 120.324 158.278C117.528 164.244 113.778 168.693 109.074 171.625C104.403 174.557 99.2727 176.023 93.6818 176.023C90 176.023 86.7102 175.426 83.8125 174.233C80.9489 173.006 78.4943 171.352 76.4489 169.273C74.4375 167.159 72.8864 164.773 71.7955 162.114H71.3864V204.455H43.1591ZM70.7727 135.727C70.7727 139.545 71.267 142.852 72.2557 145.648C73.2784 148.409 74.7102 150.557 76.5511 152.091C78.4261 153.591 80.6591 154.341 83.25 154.341C85.8409 154.341 88.0398 153.608 89.8466 152.142C91.6875 150.642 93.0852 148.511 94.0398 145.75C95.0284 142.955 95.5227 139.614 95.5227 135.727C95.5227 131.841 95.0284 128.517 94.0398 125.756C93.0852 122.96 91.6875 120.83 89.8466 119.364C88.0398 117.864 85.8409 117.114 83.25 117.114C80.6591 117.114 78.4261 117.864 76.5511 119.364C74.7102 120.83 73.2784 122.96 72.2557 125.756C71.267 128.517 70.7727 131.841 70.7727 135.727ZM161.757 156.386L161.962 122.841H165.643L184.666 96.4545H216.371L184.462 137.568H176.484L161.757 156.386ZM136.393 175V70.2727H164.621V175H136.393ZM184.871 175L166.871 143.909L185.28 123.864L217.189 175H184.871Z" fill="#000" fill-opacity="0.4"/>
<path d="M53.1591 214.455V106.455H81.1818V120.159H81.7955C82.8182 117.5 84.3182 115.062 86.2955 112.847C88.2727 110.597 90.7273 108.807 93.6591 107.477C96.5909 106.114 100 105.432 103.886 105.432C109.068 105.432 113.994 106.812 118.665 109.574C123.369 112.335 127.188 116.682 130.119 122.614C133.085 128.545 134.568 136.25 134.568 145.727C134.568 154.795 133.153 162.312 130.324 168.278C127.528 174.244 123.778 178.693 119.074 181.625C114.403 184.557 109.273 186.023 103.682 186.023C100 186.023 96.7102 185.426 93.8125 184.233C90.9489 183.006 88.4943 181.352 86.4489 179.273C84.4375 177.159 82.8864 174.773 81.7955 172.114H81.3864V214.455H53.1591ZM80.7727 145.727C80.7727 149.545 81.267 152.852 82.2557 155.648C83.2784 158.409 84.7102 160.557 86.5511 162.091C88.4261 163.591 90.6591 164.341 93.25 164.341C95.8409 164.341 98.0398 163.608 99.8466 162.142C101.688 160.642 103.085 158.511 104.04 155.75C105.028 152.955 105.523 149.614 105.523 145.727C105.523 141.841 105.028 138.517 104.04 135.756C103.085 132.96 101.688 130.83 99.8466 129.364C98.0398 127.864 95.8409 127.114 93.25 127.114C90.6591 127.114 88.4261 127.864 86.5511 129.364C84.7102 130.83 83.2784 132.96 82.2557 135.756C81.267 138.517 80.7727 141.841 80.7727 145.727ZM171.757 166.386L171.962 132.841H175.643L194.666 106.455H226.371L194.462 147.568H186.484L171.757 166.386ZM146.393 185V80.2727H174.621V185H146.393ZM194.871 185L176.871 153.909L195.28 133.864L227.189 185H194.871Z" fill="#000"/>
</g>
<defs>
<filter id="filter0_d_14_2" x="0" y="0" width="264" height="264" filterUnits="userSpaceOnUse" color-interpolation-filters="sRGB">
<feFlood flood-opacity="0" result="BackgroundImageFix"/>
<feColorMatrix in="SourceAlpha" type="matrix" values="0 0 0 0 0 0 0 0 0 0 0 0 0 0 0 0 0 0 127 0" result="hardAlpha"/>
<feOffset dy="4"/>
<feGaussianBlur stdDeviation="2"/>
<feComposite in2="hardAlpha" operator="out"/>
<feColorMatrix type="matrix" values="0 0 0 0 0 0 0 0 0 0 0 0 0 0 0 0 0 0 0.25 0"/>
<feBlend mode="normal" in2="BackgroundImageFix" result="effect1_dropShadow_14_2"/>
<feBlend mode="normal" in="SourceGraphic" in2="effect1_dropShadow_14_2" result="shape"/>
</filter>
</defs>
</svg>
